<svg width="345" height="203" viewBox="0 0 345 203" fill="none" xmlns="http://www.w3.org/2000/svg">
<path d="M19.6591 6.48499e-05L31.5909 41.0228H32.0455L43.9773 6.48499e-05H61.8182L42.6136 58.1819H21.0227L1.81818 6.48499e-05H19.6591ZM65.8219 58.1819V6.48499e-05H90.9355C95.2537 6.48499e-05 99.0321 0.78605 102.271 2.35802C105.509 3.92999 108.028 6.19325 109.828 9.14779C111.627 12.1023 112.526 15.644 112.526 19.7728C112.526 23.9395 111.598 27.4527 109.742 30.3126C107.905 33.1724 105.32 35.3315 101.987 36.7898C98.6723 38.2482 94.7991 38.9773 90.3673 38.9773H75.3673V26.7046H87.1855C89.0416 26.7046 90.623 26.4773 91.9298 26.0228C93.2556 25.5493 94.2688 24.8012 94.9696 23.7785C95.6893 22.7557 96.0492 21.4205 96.0492 19.7728C96.0492 18.1061 95.6893 16.752 94.9696 15.7103C94.2688 14.6497 93.2556 13.8732 91.9298 13.3807C90.623 12.8694 89.0416 12.6137 87.1855 12.6137H81.6173V58.1819H65.8219ZM99.9128 31.4773L114.458 58.1819H97.2992L83.0946 31.4773H99.9128Z" fill="#ECECEC"/>
<path d="M20.6818 70.0001L30.2273 86.9319H30.6818L40.3409 70.0001H57.9545L40.5682 99.091L58.6364 128.182H40.5682L30.6818 110.909H30.2273L20.3409 128.182H2.38636L20.2273 99.091L2.95455 70.0001H20.6818ZM78.9611 70.0001V128.182H63.1656V70.0001H78.9611ZM100.756 70.0001L112.688 111.023H113.142L125.074 70.0001H142.915L123.711 128.182H102.12L82.9151 70.0001H100.756Z" fill="black"/>
<path opacity="0.4" d="M169.003 73.4546V82.1819H167.793L163.357 75.7813H163.276V82.1819H161.959V73.4546H163.178L167.618 79.8637H167.699V73.4546H169.003ZM173.642 82.314C172.998 82.314 172.442 82.1762 171.976 81.9006C171.513 81.6222 171.155 81.2316 170.902 80.7288C170.652 80.2231 170.527 79.6307 170.527 78.9518C170.527 78.2813 170.652 77.6904 170.902 77.179C171.155 76.6677 171.507 76.2685 171.959 75.9816C172.414 75.6947 172.945 75.5512 173.553 75.5512C173.922 75.5512 174.28 75.6123 174.627 75.7344C174.973 75.8566 175.284 76.0484 175.56 76.3097C175.836 76.5711 176.053 76.9106 176.212 77.3282C176.371 77.743 176.451 78.2472 176.451 78.841V79.2927H171.248V78.3381H175.202C175.202 78.0029 175.134 77.706 174.998 77.4475C174.861 77.1861 174.669 76.9802 174.422 76.8296C174.178 76.679 173.891 76.6038 173.561 76.6038C173.203 76.6038 172.891 76.6918 172.624 76.868C172.36 77.0413 172.155 77.2685 172.01 77.5498C171.868 77.8282 171.797 78.1307 171.797 78.4575V79.2032C171.797 79.6407 171.874 80.0129 172.027 80.3197C172.184 80.6265 172.401 80.8609 172.679 81.0228C172.958 81.1819 173.283 81.2614 173.655 81.2614C173.897 81.2614 174.117 81.2273 174.316 81.1592C174.515 81.0881 174.686 80.983 174.831 80.8438C174.976 80.7046 175.087 80.5327 175.164 80.3282L176.37 80.5455C176.273 80.9006 176.1 81.2117 175.85 81.4788C175.603 81.743 175.292 81.9489 174.917 82.0967C174.544 82.2415 174.12 82.314 173.642 82.314ZM179.769 82.3268C179.354 82.3268 178.979 82.2501 178.644 82.0967C178.309 81.9404 178.043 81.7146 177.847 81.4191C177.654 81.1236 177.558 80.7614 177.558 80.3325C177.558 79.9631 177.629 79.6592 177.771 79.4205C177.913 79.1819 178.104 78.993 178.346 78.8538C178.587 78.7146 178.857 78.6094 179.156 78.5384C179.454 78.4674 179.758 78.4134 180.067 78.3765C180.46 78.331 180.778 78.2941 181.022 78.2657C181.266 78.2344 181.444 78.1847 181.555 78.1165C181.665 78.0484 181.721 77.9376 181.721 77.7842V77.7543C181.721 77.3822 181.616 77.0938 181.406 76.8893C181.198 76.6847 180.888 76.5825 180.477 76.5825C180.048 76.5825 179.71 76.6776 179.462 76.868C179.218 77.0555 179.049 77.2643 178.955 77.4944L177.758 77.2217C177.9 76.8239 178.107 76.5029 178.38 76.2586C178.656 76.0114 178.972 75.8325 179.33 75.7217C179.688 75.608 180.065 75.5512 180.46 75.5512C180.721 75.5512 180.998 75.5825 181.29 75.645C181.586 75.7046 181.862 75.8154 182.117 75.9773C182.376 76.1393 182.587 76.3708 182.752 76.6719C182.917 76.9702 182.999 77.358 182.999 77.8353V82.1819H181.755V81.287H181.704C181.621 81.4518 181.498 81.6137 181.333 81.7728C181.168 81.9319 180.957 82.064 180.698 82.1691C180.44 82.2742 180.13 82.3268 179.769 82.3268ZM180.046 81.304C180.398 81.304 180.7 81.2344 180.95 81.0952C181.202 80.956 181.394 80.7742 181.525 80.5498C181.658 80.3225 181.725 80.0796 181.725 79.8211V78.9773C181.68 79.0228 181.592 79.0654 181.461 79.1052C181.333 79.1421 181.187 79.1748 181.022 79.2032C180.857 79.2288 180.697 79.2529 180.54 79.2756C180.384 79.2955 180.254 79.3126 180.148 79.3268C179.901 79.358 179.675 79.4106 179.471 79.4844C179.269 79.5583 179.107 79.6648 178.985 79.804C178.866 79.9404 178.806 80.1222 178.806 80.3495C178.806 80.6648 178.923 80.9035 179.156 81.0654C179.388 81.2245 179.685 81.304 180.046 81.304ZM184.696 82.1819V75.6364H185.928V76.6762H185.996C186.115 76.3239 186.326 76.0469 186.627 75.8452C186.931 75.6407 187.275 75.5384 187.658 75.5384C187.738 75.5384 187.831 75.5413 187.939 75.5469C188.05 75.5526 188.137 75.5597 188.199 75.5682V76.787C188.148 76.7728 188.057 76.7572 187.926 76.7401C187.796 76.7202 187.665 76.7103 187.534 76.7103C187.233 76.7103 186.965 76.7742 186.729 76.9021C186.496 77.0271 186.311 77.2018 186.175 77.4262C186.039 77.6478 185.971 77.9006 185.971 78.1847V82.1819H184.696ZM192.772 77.9418V79.0455H188.902V77.9418H192.772ZM197.585 75.6364V76.6592H193.886V75.6364H197.585ZM194.9 82.1819V74.8779C194.9 74.4688 194.99 74.1293 195.169 73.8594C195.348 73.5867 195.585 73.3836 195.88 73.2501C196.176 73.1137 196.497 73.0455 196.843 73.0455C197.099 73.0455 197.318 73.0668 197.5 73.1094C197.681 73.1492 197.816 73.1861 197.904 73.2202L197.606 74.2515C197.547 74.2344 197.47 74.2146 197.376 74.1918C197.282 74.1663 197.169 74.1535 197.035 74.1535C196.725 74.1535 196.504 74.2302 196.37 74.3836C196.24 74.537 196.174 74.7586 196.174 75.0484V82.1819H194.9ZM198.9 82.1819V75.6364H200.174V82.1819H198.9ZM199.543 74.6265C199.321 74.6265 199.131 74.5526 198.972 74.4049C198.816 74.2543 198.738 74.0754 198.738 73.868C198.738 73.6577 198.816 73.4788 198.972 73.331C199.131 73.1805 199.321 73.1052 199.543 73.1052C199.765 73.1052 199.953 73.1805 200.11 73.331C200.269 73.4788 200.348 73.6577 200.348 73.868C200.348 74.0754 200.269 74.2543 200.11 74.4049C199.953 74.5526 199.765 74.6265 199.543 74.6265ZM204.709 82.314C204.064 82.314 203.509 82.1762 203.043 81.9006C202.58 81.6222 202.222 81.2316 201.969 80.7288C201.719 80.2231 201.594 79.6307 201.594 78.9518C201.594 78.2813 201.719 77.6904 201.969 77.179C202.222 76.6677 202.574 76.2685 203.026 75.9816C203.48 75.6947 204.011 75.5512 204.619 75.5512C204.989 75.5512 205.347 75.6123 205.693 75.7344C206.04 75.8566 206.351 76.0484 206.626 76.3097C206.902 76.5711 207.119 76.9106 207.278 77.3282C207.438 77.743 207.517 78.2472 207.517 78.841V79.2927H202.314V78.3381H206.268C206.268 78.0029 206.2 77.706 206.064 77.4475C205.928 77.1861 205.736 76.9802 205.489 76.8296C205.244 76.679 204.957 76.6038 204.628 76.6038C204.27 76.6038 203.957 76.6918 203.69 76.868C203.426 77.0413 203.222 77.2685 203.077 77.5498C202.935 77.8282 202.864 78.1307 202.864 78.4575V79.2032C202.864 79.6407 202.94 80.0129 203.094 80.3197C203.25 80.6265 203.467 80.8609 203.746 81.0228C204.024 81.1819 204.349 81.2614 204.722 81.2614C204.963 81.2614 205.183 81.2273 205.382 81.1592C205.581 81.0881 205.753 80.983 205.898 80.8438C206.043 80.7046 206.153 80.5327 206.23 80.3282L207.436 80.5455C207.339 80.9006 207.166 81.2117 206.916 81.4788C206.669 81.743 206.358 81.9489 205.983 82.0967C205.611 82.2415 205.186 82.314 204.709 82.314ZM210.205 73.4546V82.1819H208.931V73.4546H210.205ZM214.369 82.3097C213.841 82.3097 213.369 82.1748 212.955 81.9049C212.543 81.6322 212.219 81.2444 211.983 80.7415C211.75 80.2359 211.634 79.6293 211.634 78.9219C211.634 78.2146 211.751 77.6094 211.987 77.1066C212.226 76.6038 212.553 76.2188 212.967 75.9518C213.382 75.6847 213.852 75.5512 214.378 75.5512C214.784 75.5512 215.111 75.6194 215.358 75.7557C215.608 75.8893 215.801 76.0455 215.938 76.2245C216.077 76.4035 216.185 76.5611 216.261 76.6975H216.338V73.4546H217.612V82.1819H216.368V81.1634H216.261C216.185 81.3026 216.074 81.4617 215.929 81.6407C215.787 81.8197 215.591 81.9759 215.341 82.1094C215.091 82.243 214.767 82.3097 214.369 82.3097ZM214.651 81.2231C215.017 81.2231 215.327 81.1265 215.58 80.9333C215.835 80.7373 216.028 80.466 216.159 80.1194C216.293 79.7728 216.359 79.3694 216.359 78.9092C216.359 78.4546 216.294 78.0569 216.163 77.716C216.033 77.3751 215.841 77.1094 215.588 76.9191C215.335 76.7288 215.023 76.6336 214.651 76.6336C214.267 76.6336 213.947 76.733 213.692 76.9319C213.436 77.1307 213.243 77.4021 213.112 77.7458C212.984 78.0896 212.92 78.4773 212.92 78.9092C212.92 79.3467 212.986 79.7401 213.116 80.0896C213.247 80.439 213.44 80.716 213.696 80.9205C213.955 81.1222 214.273 81.2231 214.651 81.2231ZM225.364 82.314C224.73 82.314 224.185 82.1705 223.727 81.8836C223.273 81.5938 222.923 81.1947 222.679 80.6861C222.435 80.1776 222.312 79.5952 222.312 78.939C222.312 78.2742 222.438 77.6876 222.688 77.179C222.938 76.6677 223.29 76.2685 223.744 75.9816C224.199 75.6947 224.734 75.5512 225.351 75.5512C225.848 75.5512 226.291 75.6435 226.68 75.8282C227.07 76.01 227.384 76.2657 227.622 76.5952C227.864 76.9248 228.007 77.3097 228.053 77.7501H226.812C226.744 77.4432 226.588 77.179 226.344 76.9575C226.102 76.7359 225.778 76.6251 225.372 76.6251C225.017 76.6251 224.706 76.7188 224.439 76.9063C224.175 77.091 223.969 77.3552 223.821 77.6989C223.673 78.0398 223.599 78.4432 223.599 78.9092C223.599 79.3864 223.672 79.7984 223.817 80.145C223.962 80.4915 224.166 80.76 224.43 80.9504C224.697 81.1407 225.011 81.2359 225.372 81.2359C225.614 81.2359 225.832 81.1918 226.028 81.1038C226.227 81.0129 226.393 80.8836 226.527 80.716C226.663 80.5484 226.759 80.3467 226.812 80.1109H228.053C228.007 80.5342 227.869 80.912 227.639 81.2444C227.409 81.5768 227.101 81.8381 226.714 82.0285C226.331 82.2188 225.881 82.314 225.364 82.314ZM232.172 82.314C231.559 82.314 231.023 82.1734 230.566 81.8921C230.108 81.6109 229.753 81.2174 229.5 80.7117C229.248 80.206 229.121 79.6151 229.121 78.939C229.121 78.26 229.248 77.6663 229.5 77.1577C229.753 76.6492 230.108 76.2543 230.566 75.9731C231.023 75.6918 231.559 75.5512 232.172 75.5512C232.786 75.5512 233.321 75.6918 233.779 75.9731C234.236 76.2543 234.591 76.6492 234.844 77.1577C235.097 77.6663 235.223 78.26 235.223 78.939C235.223 79.6151 235.097 80.206 234.844 80.7117C234.591 81.2174 234.236 81.6109 233.779 81.8921C233.321 82.1734 232.786 82.314 232.172 82.314ZM232.176 81.2444C232.574 81.2444 232.904 81.1393 233.165 80.929C233.426 80.7188 233.62 80.439 233.745 80.0896C233.873 79.7401 233.936 79.3552 233.936 78.9347C233.936 78.5171 233.873 78.1336 233.745 77.7842C233.62 77.4319 233.426 77.1492 233.165 76.9361C232.904 76.7231 232.574 76.6165 232.176 76.6165C231.776 76.6165 231.444 76.7231 231.179 76.9361C230.918 77.1492 230.723 77.4319 230.596 77.7842C230.471 78.1336 230.408 78.5171 230.408 78.9347C230.408 79.3552 230.471 79.7401 230.596 80.0896C230.723 80.439 230.918 80.7188 231.179 80.929C231.444 81.1393 231.776 81.2444 232.176 81.2444ZM236.646 82.1819V75.6364H237.869V76.7018H237.95C238.086 76.341 238.309 76.0597 238.619 75.858C238.928 75.6535 239.299 75.5512 239.731 75.5512C240.168 75.5512 240.535 75.6535 240.83 75.858C241.129 76.0626 241.349 76.3438 241.491 76.7018H241.559C241.715 76.3523 241.964 76.0739 242.305 75.8665C242.646 75.6563 243.052 75.5512 243.523 75.5512C244.117 75.5512 244.602 75.7373 244.977 76.1094C245.354 76.4816 245.543 77.0427 245.543 77.7927V82.1819H244.269V77.912C244.269 77.4688 244.148 77.1478 243.907 76.9489C243.665 76.7501 243.377 76.6506 243.042 76.6506C242.627 76.6506 242.305 76.7785 242.075 77.0342C241.844 77.287 241.729 77.6123 241.729 78.01V82.1819H240.46V77.831C240.46 77.4759 240.349 77.1904 240.127 76.9745C239.906 76.7586 239.617 76.6506 239.262 76.6506C239.021 76.6506 238.798 76.7146 238.593 76.8424C238.391 76.9674 238.228 77.1421 238.103 77.3665C237.981 77.591 237.92 77.8509 237.92 78.1464V82.1819H236.646ZM247.251 82.1819V75.6364H248.474V76.7018H248.555C248.691 76.341 248.914 76.0597 249.224 75.858C249.534 75.6535 249.904 75.5512 250.336 75.5512C250.774 75.5512 251.14 75.6535 251.436 75.858C251.734 76.0626 251.954 76.3438 252.096 76.7018H252.164C252.321 76.3523 252.569 76.0739 252.91 75.8665C253.251 75.6563 253.657 75.5512 254.129 75.5512C254.723 75.5512 255.207 75.7373 255.582 76.1094C255.96 76.4816 256.149 77.0427 256.149 77.7927V82.1819H254.875V77.912C254.875 77.4688 254.754 77.1478 254.512 76.9489C254.271 76.7501 253.983 76.6506 253.647 76.6506C253.233 76.6506 252.91 76.7785 252.68 77.0342C252.45 77.287 252.335 77.6123 252.335 78.01V82.1819H251.065V77.831C251.065 77.4759 250.954 77.1904 250.733 76.9745C250.511 76.7586 250.223 76.6506 249.868 76.6506C249.626 76.6506 249.403 76.7146 249.199 76.8424C248.997 76.9674 248.833 77.1421 248.708 77.3665C248.586 77.591 248.525 77.8509 248.525 78.1464V82.1819H247.251ZM262.003 79.4674V75.6364H263.281V82.1819H262.028V81.0484H261.96C261.81 81.3978 261.568 81.689 261.236 81.9219C260.906 82.1521 260.496 82.2671 260.004 82.2671C259.584 82.2671 259.212 82.1748 258.888 81.9901C258.567 81.8026 258.314 81.5256 258.129 81.1592C257.947 80.7927 257.857 80.3396 257.857 79.7998V75.6364H259.131V79.6464C259.131 80.0924 259.254 80.4475 259.501 80.7117C259.749 80.9759 260.07 81.108 260.464 81.108C260.703 81.108 260.94 81.0484 261.176 80.929C261.415 80.8097 261.612 80.6293 261.768 80.3879C261.928 80.1464 262.006 79.8396 262.003 79.4674ZM266.267 78.2955V82.1819H264.993V75.6364H266.216V76.7018H266.297C266.448 76.3552 266.684 76.0768 267.005 75.8665C267.328 75.6563 267.736 75.5512 268.228 75.5512C268.674 75.5512 269.064 75.645 269.4 75.8325C269.735 76.0171 269.995 76.2927 270.179 76.6592C270.364 77.0256 270.456 77.4788 270.456 78.0185V82.1819H269.182V78.1719C269.182 77.6975 269.059 77.3268 268.811 77.0597C268.564 76.7898 268.225 76.6549 267.793 76.6549C267.498 76.6549 267.235 76.7188 267.005 76.8467C266.777 76.9745 266.597 77.162 266.463 77.4092C266.333 77.6535 266.267 77.9489 266.267 78.2955ZM272.165 82.1819V75.6364H273.439V82.1819H272.165ZM272.809 74.6265C272.587 74.6265 272.397 74.5526 272.238 74.4049C272.081 74.2543 272.003 74.0754 272.003 73.868C272.003 73.6577 272.081 73.4788 272.238 73.331C272.397 73.1805 272.587 73.1052 272.809 73.1052C273.03 73.1052 273.219 73.1805 273.375 73.331C273.534 73.4788 273.614 73.6577 273.614 73.868C273.614 74.0754 273.534 74.2543 273.375 74.4049C273.219 74.5526 273.03 74.6265 272.809 74.6265ZM277.911 82.314C277.277 82.314 276.732 82.1705 276.274 81.8836C275.82 81.5938 275.47 81.1947 275.226 80.6861C274.982 80.1776 274.859 79.5952 274.859 78.939C274.859 78.2742 274.984 77.6876 275.234 77.179C275.484 76.6677 275.837 76.2685 276.291 75.9816C276.746 75.6947 277.281 75.5512 277.898 75.5512C278.395 75.5512 278.838 75.6435 279.227 75.8282C279.616 76.01 279.93 76.2657 280.169 76.5952C280.411 76.9248 280.554 77.3097 280.599 77.7501H279.359C279.291 77.4432 279.135 77.179 278.891 76.9575C278.649 76.7359 278.325 76.6251 277.919 76.6251C277.564 76.6251 277.253 76.7188 276.986 76.9063C276.722 77.091 276.516 77.3552 276.368 77.6989C276.22 78.0398 276.146 78.4432 276.146 78.9092C276.146 79.3864 276.219 79.7984 276.364 80.145C276.509 80.4915 276.713 80.76 276.977 80.9504C277.244 81.1407 277.558 81.2359 277.919 81.2359C278.161 81.2359 278.379 81.1918 278.575 81.1038C278.774 81.0129 278.94 80.8836 279.074 80.716C279.21 80.5484 279.305 80.3467 279.359 80.1109H280.599C280.554 80.5342 280.416 80.912 280.186 81.2444C279.956 81.5768 279.648 81.8381 279.261 82.0285C278.878 82.2188 278.428 82.314 277.911 82.314ZM283.867 82.3268C283.452 82.3268 283.077 82.2501 282.742 82.0967C282.407 81.9404 282.141 81.7146 281.945 81.4191C281.752 81.1236 281.655 80.7614 281.655 80.3325C281.655 79.9631 281.726 79.6592 281.868 79.4205C282.01 79.1819 282.202 78.993 282.444 78.8538C282.685 78.7146 282.955 78.6094 283.253 78.5384C283.551 78.4674 283.855 78.4134 284.165 78.3765C284.557 78.331 284.875 78.2941 285.12 78.2657C285.364 78.2344 285.542 78.1847 285.652 78.1165C285.763 78.0484 285.819 77.9376 285.819 77.7842V77.7543C285.819 77.3822 285.713 77.0938 285.503 76.8893C285.296 76.6847 284.986 76.5825 284.574 76.5825C284.145 76.5825 283.807 76.6776 283.56 76.868C283.316 77.0555 283.147 77.2643 283.053 77.4944L281.855 77.2217C281.998 76.8239 282.205 76.5029 282.478 76.2586C282.753 76.0114 283.07 75.8325 283.428 75.7217C283.786 75.608 284.162 75.5512 284.557 75.5512C284.819 75.5512 285.096 75.5825 285.388 75.645C285.684 75.7046 285.959 75.8154 286.215 75.9773C286.473 76.1393 286.685 76.3708 286.85 76.6719C287.015 76.9702 287.097 77.358 287.097 77.8353V82.1819H285.853V81.287H285.801C285.719 81.4518 285.596 81.6137 285.431 81.7728C285.266 81.9319 285.054 82.064 284.796 82.1691C284.537 82.2742 284.228 82.3268 283.867 82.3268ZM284.144 81.304C284.496 81.304 284.797 81.2344 285.047 81.0952C285.3 80.956 285.492 80.7742 285.623 80.5498C285.756 80.3225 285.823 80.0796 285.823 79.8211V78.9773C285.777 79.0228 285.689 79.0654 285.559 79.1052C285.431 79.1421 285.284 79.1748 285.12 79.2032C284.955 79.2288 284.794 79.2529 284.638 79.2756C284.482 79.2955 284.351 79.3126 284.246 79.3268C283.999 79.358 283.773 79.4106 283.569 79.4844C283.367 79.5583 283.205 79.6648 283.083 79.804C282.963 79.9404 282.904 80.1222 282.904 80.3495C282.904 80.6648 283.02 80.9035 283.253 81.0654C283.486 81.2245 283.783 81.304 284.144 81.304ZM291.849 75.6364V76.6592H288.274V75.6364H291.849ZM289.233 74.0682H290.507V80.26C290.507 80.5072 290.544 80.6932 290.618 80.8182C290.692 80.9404 290.787 81.0242 290.903 81.0697C291.023 81.1123 291.152 81.1336 291.291 81.1336C291.393 81.1336 291.483 81.1265 291.56 81.1123C291.636 81.0981 291.696 81.0867 291.739 81.0782L291.969 82.1307C291.895 82.1592 291.79 82.1876 291.653 82.216C291.517 82.2472 291.347 82.2643 291.142 82.2671C290.807 82.2728 290.494 82.2131 290.205 82.0881C289.915 81.9631 289.68 81.77 289.501 81.5086C289.322 81.2472 289.233 80.9191 289.233 80.5242V74.0682ZM293.259 82.1819V75.6364H294.533V82.1819H293.259ZM293.902 74.6265C293.681 74.6265 293.49 74.5526 293.331 74.4049C293.175 74.2543 293.097 74.0754 293.097 73.868C293.097 73.6577 293.175 73.4788 293.331 73.331C293.49 73.1805 293.681 73.1052 293.902 73.1052C294.124 73.1052 294.313 73.1805 294.469 73.331C294.628 73.4788 294.708 73.6577 294.708 73.868C294.708 74.0754 294.628 74.2543 294.469 74.4049C294.313 74.5526 294.124 74.6265 293.902 74.6265ZM299.004 82.314C298.391 82.314 297.855 82.1734 297.398 81.8921C296.94 81.6109 296.585 81.2174 296.332 80.7117C296.08 80.206 295.953 79.6151 295.953 78.939C295.953 78.26 296.08 77.6663 296.332 77.1577C296.585 76.6492 296.94 76.2543 297.398 75.9731C297.855 75.6918 298.391 75.5512 299.004 75.5512C299.618 75.5512 300.153 75.6918 300.611 75.9731C301.068 76.2543 301.423 76.6492 301.676 77.1577C301.929 77.6663 302.055 78.26 302.055 78.939C302.055 79.6151 301.929 80.206 301.676 80.7117C301.423 81.2174 301.068 81.6109 300.611 81.8921C300.153 82.1734 299.618 82.314 299.004 82.314ZM299.009 81.2444C299.406 81.2444 299.736 81.1393 299.997 80.929C300.259 80.7188 300.452 80.439 300.577 80.0896C300.705 79.7401 300.768 79.3552 300.768 78.9347C300.768 78.5171 300.705 78.1336 300.577 77.7842C300.452 77.4319 300.259 77.1492 299.997 76.9361C299.736 76.7231 299.406 76.6165 299.009 76.6165C298.608 76.6165 298.276 76.7231 298.011 76.9361C297.75 77.1492 297.555 77.4319 297.428 77.7842C297.303 78.1336 297.24 78.5171 297.24 78.9347C297.24 79.3552 297.303 79.7401 297.428 80.0896C297.555 80.439 297.75 80.7188 298.011 80.929C298.276 81.1393 298.608 81.2444 299.009 81.2444ZM304.752 78.2955V82.1819H303.478V75.6364H304.701V76.7018H304.782C304.932 76.3552 305.168 76.0768 305.489 75.8665C305.813 75.6563 306.221 75.5512 306.712 75.5512C307.158 75.5512 307.549 75.645 307.884 75.8325C308.219 76.0171 308.479 76.2927 308.664 76.6592C308.848 77.0256 308.941 77.4788 308.941 78.0185V82.1819H307.667V78.1719C307.667 77.6975 307.543 77.3268 307.296 77.0597C307.049 76.7898 306.709 76.6549 306.277 76.6549C305.982 76.6549 305.719 76.7188 305.489 76.8467C305.262 76.9745 305.081 77.162 304.948 77.4092C304.817 77.6535 304.752 77.9489 304.752 78.2955Z" fill="#1E1E1E"/>
<path opacity="0.2" d="M342.307 68.5455L329.182 117.307H327.83L340.955 68.5455H342.307Z" fill="#1E1E1E"/>
<path d="M26.25 176.591H38.5227L42.9545 182.159L50.4545 190.682L60.2273 202.5H46.25L39.3182 194.432L34.6591 187.727L26.25 176.591ZM60.1136 169.091C60.1136 175.568 58.8542 181.032 56.3352 185.483C53.8163 189.915 50.4167 193.277 46.1364 195.568C41.8561 197.841 37.0833 198.977 31.8182 198.977C26.5152 198.977 21.7235 197.832 17.4432 195.54C13.1818 193.229 9.79167 189.858 7.27273 185.426C4.77273 180.975 3.52273 175.53 3.52273 169.091C3.52273 162.614 4.77273 157.159 7.27273 152.727C9.79167 148.277 13.1818 144.915 17.4432 142.642C21.7235 140.35 26.5152 139.205 31.8182 139.205C37.0833 139.205 41.8561 140.35 46.1364 142.642C50.4167 144.915 53.8163 148.277 56.3352 152.727C58.8542 157.159 60.1136 162.614 60.1136 169.091ZM43.8636 169.091C43.8636 165.606 43.3996 162.671 42.4716 160.284C41.5625 157.879 40.2083 156.061 38.4091 154.83C36.6288 153.58 34.4318 152.955 31.8182 152.955C29.2045 152.955 26.9981 153.58 25.1989 154.83C23.4186 156.061 22.0644 157.879 21.1364 160.284C20.2273 162.671 19.7727 165.606 19.7727 169.091C19.7727 172.576 20.2273 175.521 21.1364 177.926C22.0644 180.313 23.4186 182.131 25.1989 183.381C26.9981 184.612 29.2045 185.227 31.8182 185.227C34.4318 185.227 36.6288 184.612 38.4091 183.381C40.2083 182.131 41.5625 180.313 42.4716 177.926C43.3996 175.521 43.8636 172.576 43.8636 169.091ZM65.9 198.182V140H91.0136C95.3318 140 99.1102 140.786 102.349 142.358C105.588 143.93 108.106 146.193 109.906 149.148C111.705 152.102 112.605 155.644 112.605 159.773C112.605 163.939 111.677 167.453 109.82 170.313C107.983 173.172 105.398 175.332 102.065 176.79C98.7504 178.248 94.8773 178.977 90.4455 178.977H75.4455V166.705H87.2636C89.1197 166.705 90.7011 166.477 92.008 166.023C93.3337 165.549 94.347 164.801 95.0477 163.778C95.7674 162.756 96.1273 161.421 96.1273 159.773C96.1273 158.106 95.7674 156.752 95.0477 155.71C94.347 154.65 93.3337 153.873 92.008 153.381C90.7011 152.869 89.1197 152.614 87.2636 152.614H81.6955V198.182H65.9ZM99.9909 171.477L114.536 198.182H97.3773L83.1727 171.477H99.9909Z" fill="black"/>
</svg>
