<svg width="16" height="15" viewBox="0 0 16 15" fill="none" xmlns="http://www.w3.org/2000/svg">
<path d="M1.33287 12.5756C2.26504 13.75 3.99996 13.75 7.4698 13.75H8.0302C11.5 13.75 13.235 13.75 14.1671 12.5756M1.33287 12.5756C0.400708 11.4011 0.720433 9.61813 1.35989 6.05212C1.81463 3.51617 2.042 2.24819 2.90523 1.49909M1.33287 12.5756V12.5756ZM14.1671 12.5756C15.0993 11.4011 14.7796 9.61813 14.1401 6.05213C13.6854 3.51617 13.458 2.24819 12.5948 1.49909M14.1671 12.5756V12.5756ZM12.5948 1.49909C11.7316 0.75 10.4978 0.75 8.0302 0.75H7.4698C5.00223 0.75 3.76845 0.75 2.90523 1.49909M12.5948 1.49909V1.49909ZM2.90523 1.49909V1.49909Z" stroke="black" stroke-width="1.5"/>
<path d="M5.75 3.75C6.04112 4.91519 6.82665 5.75 7.75 5.75C8.67335 5.75 9.45888 4.91519 9.75 3.75" stroke="black" stroke-width="1.5" stroke-linecap="round"/>
</svg>
