<svg width="17" height="17" viewBox="0 0 17 17" fill="none" xmlns="http://www.w3.org/2000/svg">
<path d="M11.6474 15.5479L11.6013 14.7994L11.6474 15.5479ZM6.17423 5.67804L6.11775 6.42591C6.32105 6.44126 6.52184 6.37319 6.67389 6.23736C6.82594 6.10153 6.91614 5.90965 6.92371 5.70591L6.17423 5.67804ZM15.3669 12.2252L16.1056 12.3551L15.3669 12.2252ZM11.6013 14.7994C10.0101 14.8974 8.37596 15.0877 6.77713 14.9022C5.21676 14.7212 3.77458 14.1862 2.60095 12.8725L1.48231 13.8718C2.96781 15.5347 4.79386 16.1822 6.60428 16.3922C8.37623 16.5978 10.2155 16.3876 11.6936 16.2965L11.6013 14.7994ZM2.60095 12.8725C1.45832 11.5934 1.22736 9.88046 1.80615 8.55939C2.36407 7.28593 3.73833 6.24619 6.11775 6.42591L6.23072 4.93017C3.29928 4.70876 1.27767 6.02774 0.432223 7.95745C-0.392361 9.83953 -0.0342012 12.1742 1.48231 13.8718L2.60095 12.8725ZM11.6936 16.2965C12.2263 16.2637 12.8078 16.2262 13.3376 16.1186C13.8672 16.0111 14.4278 15.8189 14.8758 15.4186L13.8765 14.3C13.7124 14.4465 13.4502 14.5652 13.0392 14.6486C12.6285 14.732 12.1516 14.7654 11.6013 14.7994L11.6936 16.2965ZM16.1056 12.3551C16.3621 10.8966 16.7775 9.0926 16.7723 7.30878C16.7669 5.48622 16.3286 3.599 14.8431 1.93612L13.7245 2.93544C14.8981 4.2492 15.2677 5.74235 15.2723 7.31318C15.277 8.92272 14.9044 10.5251 14.6283 12.0953L16.1056 12.3551ZM14.8431 1.93612C13.3266 0.238539 11.0469 -0.379582 9.08415 0.228388C7.0717 0.851739 5.534 2.71242 5.42475 5.65017L6.92371 5.70591C7.01239 3.32136 8.19991 2.07259 9.52797 1.66123C10.9057 1.23448 12.5818 1.65638 13.7245 2.93544L14.8431 1.93612ZM14.6283 12.0953C14.5328 12.6383 14.446 13.1084 14.317 13.5071C14.1879 13.9061 14.0405 14.1534 13.8765 14.3L14.8758 15.4186C15.3238 15.0183 15.5779 14.4829 15.7442 13.9688C15.9106 13.4544 16.0131 12.8808 16.1056 12.3551L14.6283 12.0953Z" fill="white"/>
</svg>
